<svg width="16" height="17" viewBox="0 0 16 17" fill="none" xmlns="http://www.w3.org/2000/svg">
<path d="M14.4201 11.6942H5.11543L5.58262 10.7427L13.3451 10.7286C13.6076 10.7286 13.8326 10.5411 13.8795 10.2817L14.9545 4.26455C14.9826 4.10674 14.9404 3.94424 14.8373 3.8208C14.7863 3.76005 14.7228 3.71112 14.651 3.67739C14.5792 3.64366 14.501 3.62595 14.4217 3.62549L4.54668 3.59268L4.4623 3.1958C4.40918 2.94268 4.18105 2.7583 3.92168 2.7583H1.50762C1.36133 2.7583 1.22104 2.81641 1.1176 2.91985C1.01417 3.02329 0.956055 3.16358 0.956055 3.30986C0.956055 3.45615 1.01417 3.59644 1.1176 3.69988C1.22104 3.80331 1.36133 3.86143 1.50762 3.86143H3.4748L3.84355 5.61455L4.75137 10.0099L3.58262 11.9177C3.52192 11.9996 3.48536 12.0969 3.47708 12.1985C3.4688 12.3001 3.48912 12.402 3.53574 12.4927C3.62949 12.6786 3.81855 12.7958 4.02793 12.7958H5.00918C4.79999 13.0736 4.687 13.4121 4.6873 13.7599C4.6873 14.6442 5.40605 15.363 6.29043 15.363C7.1748 15.363 7.89355 14.6442 7.89355 13.7599C7.89355 13.4114 7.77793 13.0724 7.57168 12.7958H10.0889C9.87968 13.0736 9.76669 13.4121 9.76699 13.7599C9.76699 14.6442 10.4857 15.363 11.3701 15.363C12.2545 15.363 12.9732 14.6442 12.9732 13.7599C12.9732 13.4114 12.8576 13.0724 12.6514 12.7958H14.4217C14.7248 12.7958 14.9732 12.5489 14.9732 12.2442C14.9723 12.0981 14.9137 11.9583 14.81 11.8552C14.7064 11.7522 14.5663 11.6943 14.4201 11.6942V11.6942ZM4.77637 4.68018L13.7732 4.70986L12.892 9.64424L5.8248 9.65674L4.77637 4.68018ZM6.29043 14.2536C6.01855 14.2536 5.79668 14.0317 5.79668 13.7599C5.79668 13.488 6.01855 13.2661 6.29043 13.2661C6.5623 13.2661 6.78418 13.488 6.78418 13.7599C6.78418 13.8908 6.73216 14.0164 6.63956 14.109C6.54697 14.2016 6.42138 14.2536 6.29043 14.2536V14.2536ZM11.3701 14.2536C11.0982 14.2536 10.8764 14.0317 10.8764 13.7599C10.8764 13.488 11.0982 13.2661 11.3701 13.2661C11.642 13.2661 11.8639 13.488 11.8639 13.7599C11.8639 13.8908 11.8118 14.0164 11.7193 14.109C11.6267 14.2016 11.5011 14.2536 11.3701 14.2536V14.2536Z" fill="white"/>
</svg>
